<svg id="Layer_1" enable-background="new 0 0 512 512" viewBox="0 0 512 512" xmlns="http://www.w3.org/2000/svg"><g><g clip-rule="evenodd" fill-rule="evenodd"><path d="m439.95 398.97 33.02-19.08 38.58 66.78c.6 1.05.6 2.27-.03 3.32-.6 1.05-1.64 1.64-2.86 1.62l-14.43-.08c-1.22 0-2.27.6-2.89 1.67l-7.11 12.53c-.62 1.08-1.64 1.67-2.86 1.67s-2.24-.6-2.86-1.64z" fill="#ff4155"/><path d="m439.95 398.97-33.05-19.07-38.55 66.78c-.6 1.05-.6 2.27 0 3.32.62 1.05 1.67 1.64 2.86 1.62l14.46-.08c1.22 0 2.27.6 2.86 1.67l7.14 12.53c.6 1.08 1.64 1.67 2.86 1.67 1.19 0 2.24-.6 2.83-1.64z" fill="#ff4155"/><path d="m124.57 132.37h324.28c11.59 0 21.06 9.47 21.06 21.06v230.23c0 11.59-9.47 21.09-21.06 21.09h-324.28c-11.59 0-21.09-9.5-21.09-21.09v-230.22c0-11.6 9.5-21.07 21.09-21.07z" fill="#fea832"/><path d="m185.88 187.62h201.66c3.4 0 6.26 2.32 7 5.64 2.18 9.75 9.86 17.43 19.62 19.62 3.32.74 5.64 3.6 5.64 7v97.34c0 3.43-2.32 6.29-5.64 7.03-9.75 2.18-17.43 9.86-19.62 19.62-.74 3.32-3.6 5.61-7 5.61h-201.66c-3.4 0-6.29-2.3-7.03-5.61-2.15-9.75-9.84-17.43-19.59-19.62-3.34-.74-5.64-3.6-5.64-7.03v-97.34c0-3.4 2.3-6.26 5.64-7 9.75-2.18 17.43-9.86 19.59-19.62.74-3.31 3.63-5.64 7.03-5.64z" fill="#ebf5fc"/><path d="m444.26 297.63 11.62 8.42c1.3.91 2.66 1.36 4.25 1.39l14.68.11c3.23.03 5.95 2.01 6.97 5.07l4.48 13.63c.51 1.53 1.33 2.69 2.64 3.63l11.79 8.73c2.61 1.93 3.63 5.13 2.64 8.22l-4.37 13.66c-.51 1.5-.51 2.95-.03 4.48l4.42 14c.96 3.06-.08 6.26-2.66 8.19l-11.59 8.48c-1.28.94-2.13 2.1-2.64 3.6l-4.65 13.95c-1.02 3.06-3.77 5.02-7 5.05l-14.34.06c-1.59 0-2.98.43-4.25 1.36l-11.96 8.53c-2.64 1.87-6.01 1.87-8.62-.03l-11.65-8.39c-1.28-.94-2.66-1.39-4.25-1.39l-14.68-.11c-3.23-.03-5.95-2.04-6.94-5.1l-4.48-13.63c-.51-1.5-1.36-2.66-2.64-3.63l-11.82-8.73c-2.58-1.9-3.63-5.13-2.64-8.19l4.39-13.66c.48-1.53.48-2.95 0-4.48l-4.42-14c-.96-3.09.09-6.29 2.69-8.19l11.57-8.48c1.3-.94 2.15-2.1 2.66-3.63l4.65-13.92c1.02-3.06 3.74-5.05 6.97-5.05l14.34-.06c1.62 0 2.98-.45 4.28-1.36l11.96-8.53c2.62-1.87 6-1.87 8.63 0z" fill="#ffd23b"/><path d="m439.95 397.56c19.08 0 34.64-15.56 34.64-34.64s-15.56-34.64-34.64-34.64-34.64 15.56-34.64 34.64 15.57 34.64 34.64 34.64z" fill="#fea832"/></g><path d="m211.85 315.21c-4.54 0-8.25-3.68-8.25-8.25s3.71-8.28 8.25-8.28h149.7c4.56 0 8.25 3.71 8.25 8.28s-3.69 8.25-8.25 8.25zm29.28-76.79c-4.56 0-8.25-3.69-8.25-8.25s3.69-8.25 8.25-8.25h91.13c4.56 0 8.28 3.69 8.28 8.25s-3.71 8.25-8.28 8.25zm-29.28 38.41c-4.54 0-8.25-3.71-8.25-8.28 0-4.54 3.71-8.25 8.25-8.25h149.7c4.56 0 8.25 3.71 8.25 8.25 0 4.56-3.69 8.28-8.25 8.28z" fill="#70da40"/><path clip-rule="evenodd" d="m49.82 205.85 111.43-111.43 60.29 60.29c6.92 6.92 8.16 17.35 3.09 25.71-23.98 39.32-54.31 67.69-88.84 88.78-8.33 5.1-18.79 3.85-25.71-3.06z" fill="#2a4a60" fill-rule="evenodd"/><path clip-rule="evenodd" d="m.89 247.6 61.46-134.42c1.25-2.78 3.46-4.99 6.21-6.24l134.44-61.45c3-1.36 5.78-1.16 7.51.57s1.93 4.48.54 7.48l-61.43 134.45c-1.28 2.75-3.49 4.96-6.24 6.24l-134.44 61.42c-3 1.39-5.75 1.19-7.48-.54-1.73-1.72-1.93-4.5-.57-7.51z" fill="#3a6584" fill-rule="evenodd"/><path d="m14.42 256.11c-3.23-3.23-3.23-8.45 0-11.68 3.2-3.23 8.45-3.23 11.68 0l36 36c3.23 3.23 3.23 8.48 0 11.68-3.23 3.23-8.45 3.23-11.68 0z" fill="#ffd23b"/><path clip-rule="evenodd" d="m.89 247.6 61.46-134.42c1.25-2.78 3.46-4.99 6.21-6.24l134.44-61.45c3-1.36 5.78-1.16 7.51.57 1.7 1.7 1.93 4.39.6 7.37l-132.01 60.32c-2.75 1.28-4.96 3.49-6.24 6.24l-56.13 122.8c-.85.4-1.64.94-2.32 1.64-2.21 2.18-2.89 5.3-2.13 8.08l-.85 1.93-.08.11-2.41 1.11c-3 1.39-5.75 1.19-7.48-.54-1.73-1.73-1.93-4.51-.57-7.52z" fill="#345b77" fill-rule="evenodd"/><path clip-rule="evenodd" d="m120.83 271.92v111.74c0 11.59 9.5 21.09 21.09 21.09h-17.35c-11.59 0-21.09-9.5-21.09-21.09v-124.12l6.6 6.6c3.07 3.06 6.81 4.99 10.75 5.78z" fill="#e5972d" fill-rule="evenodd"/><path clip-rule="evenodd" d="m170.97 243.75v73.47c0 3.43 2.3 6.29 5.61 7.03 9.78 2.18 17.43 9.86 19.62 19.62.74 3.32 3.6 5.61 7.03 5.61h-17.35c-3.4 0-6.29-2.3-7.03-5.61-2.15-9.75-9.84-17.43-19.59-19.62-3.34-.74-5.64-3.6-5.64-7.03v-59.84c5.93-4.28 11.71-8.81 17.35-13.63z" fill="#d4dde3" fill-rule="evenodd"/><path clip-rule="evenodd" d="m444.26 297.63 1.08.79-10.83 7.74c-1.3.91-2.66 1.36-4.25 1.36l-14.34.06c-3.23 0-5.98 1.98-7 5.05l-4.65 13.92c-.51 1.53-1.36 2.69-2.64 3.63l-11.59 8.48c-2.58 1.9-3.66 5.1-2.66 8.19l4.42 14c.48 1.53.45 2.95-.03 4.48l-4.37 13.66c-.99 3.06.03 6.29 2.64 8.19l11.79 8.73c1.3.96 2.13 2.13 2.64 3.63l4.48 13.63c1.02 3.06 3.74 5.07 6.97 5.1l14.68.11c1.59 0 2.95.45 4.25 1.39l10.54 7.6-1.13.82c-2.64 1.87-6.01 1.87-8.62-.03l-11.65-8.39c-1.28-.94-2.66-1.39-4.25-1.39l-14.68-.11c-3.23-.03-5.95-2.04-6.94-5.1l-4.48-13.63c-.51-1.5-1.36-2.66-2.64-3.63l-11.82-8.73c-2.58-1.9-3.63-5.13-2.64-8.19l4.39-13.66c.48-1.53.48-2.95 0-4.48l-4.42-14c-.96-3.09.09-6.29 2.69-8.19l11.57-8.48c1.3-.94 2.15-2.1 2.66-3.63l4.65-13.92c1.02-3.06 3.74-5.05 6.97-5.05l14.34-.06c1.62 0 2.98-.45 4.28-1.36l11.96-8.53c2.62-1.87 6-1.87 8.63 0z" fill="#e6bd35" fill-rule="evenodd"/></g></svg>